<svg fill="#001FFF"
                             xmlns="http://www.w3.org/2000/svg" xmlns:xlink="http://www.w3.org/1999/xlink"
                             xml:space="preserve" width="150px" height="150px" version="1.0"
                             style="shape-rendering:geometricPrecision; text-rendering:geometricPrecision; image-rendering:optimizeQuality; fill-rule:evenodd; clip-rule:evenodd"
                             viewBox="0 0 36124.44 27093.32">
                            <g id="Слой_x0020_1">
                                <metadata id="CorelCorpID_0Corel-Layer"/>
                                <g id="_1870385012352">
                                    <path class="fil0"
                                          d="M13440.92 25063.51l0 676.61c0,747.26 605.98,1353.23 1353.41,1353.23 747.08,0 1353.05,-605.97 1353.05,-1353.23l0 -676.61 -2706.46 0z"/>
                                    <path class="fil0"
                                          d="M21296.9 5580.54l385.26 -3110.16c41.91,-338.33 306.01,-594.78 645.43,-626.74 1108.15,-104.4 1072.83,-1843.62 -106.32,-1843.62l-8318.34 0c-1179.14,0 -1214.46,1739.22 -106.07,1843.62 339.41,31.96 603.52,288.53 645.43,626.86l385.02 3110.04 -1386.39 0c-1531.01,0 -2772.78,1241.77 -2772.78,2772.9l0 12904.44c0,1531.02 1241.77,2772.78 2772.78,2772.78l9251.58 0c1526.83,-5.03 2763.68,-1244.76 2763.68,-2772.78l0 -12904.44c0,-1531.25 -1242,-2772.9 -2772.66,-2772.9l-1386.62 0zm-4620.95 0l-362.16 -2925.42c-53.39,-431.13 278.6,-806.58 712.95,-806.58l2071.09 0c434.47,0 766.22,375.57 712.83,806.7l-362.28 2925.3 -2772.43 0zm-3815.68 3703.75l1902.87 11062.26c159.23,924.74 1068.05,784.43 978.38,-109.3l-1099.66 -10952.96c-141.63,-1411.3 -1977.58,-1140 -1781.59,0zm10404.03 0l-1902.87 11062.26c-159.24,924.74 -1068.05,784.43 -978.38,-109.3l1099.65 -10952.96c141.64,-1411.3 1977.59,-1140 1781.6,0zm-4301.88 -309.25l-440.7 11456.75c-48.25,729.6 -890.98,730.79 -918.99,0l-440.7 -11456.75c-33.88,-882.83 1834.27,-882.47 1800.39,0z"/>
                                    <path class="fil0"
                                          d="M19977.07 25063.51l0 676.61c0,747.26 605.97,1353.23 1353.4,1353.23 747.08,0 1353.05,-605.97 1353.05,-1353.23l0 -676.61 -2706.45 0z"/>
                                </g>
                            </g>
                        </svg>