<svg xmlns="http://www.w3.org/2000/svg"
                             fill="#7329B0" xmlns:xlink="http://www.w3.org/1999/xlink" xml:space="preserve"
                             width="150px"
                             height="150px" version="1.0"
                             style="shape-rendering:geometricPrecision; text-rendering:geometricPrecision; image-rendering:optimizeQuality; fill-rule:evenodd; clip-rule:evenodd"
                             viewBox="0 0 36124.44 27093.32">
                            <g id="Слой_x0020_1">
                                <metadata id="CorelCorpID_0Corel-Layer"/>
                                <path class="fil0"
                                      d="M1934.65 14437.57l8794.75 0 0 -4561.33c0,-1065.61 869.04,-1934.66 1934.65,-1934.66l10796.14 0c1065.61,0 1934.66,869.05 1934.66,1934.66l0 4561.33 0 7598.16 -3335.63 0 0 -7067.97c0,-2136.05 -2219.05,-3359.04 -3843.97,-4297.16 -1624.91,938.12 -3843.96,2161.11 -3843.96,4297.16l0 7067.97 -3641.89 0 -10729.4 0 0 -5663.51c0,-1065.61 869.05,-1934.65 1934.65,-1934.65zm364.29 -3434.72l6131.49 0 0 2397.58 -6131.49 0 0 -2397.58zm0 -1037.17l3065.74 0 3065.75 0 0 -1197.82c0,-1877.46 -1413.15,-2756.27 -3065.75,-3710.37 -1652.59,954.1 -3065.74,1832.91 -3065.74,3710.37l0 1197.82zm26518.7 4471.89l5372.15 0c1065.6,0 1934.65,869.04 1934.65,1934.65l0 5663.51 -9581.95 0 343.88 -5778.43c60.94,-1023.43 906,-1819.73 1931.27,-1819.73z"/>
                            </g>
                        </svg>