<svg xmlns="http://www.w3.org/2000/svg"
                             fill="#7329B0" xmlns:xlink="http://www.w3.org/1999/xlink" xml:space="preserve"
                             width="150px"
                             height="150px" version="1.0"
                             style="shape-rendering:geometricPrecision; text-rendering:geometricPrecision; image-rendering:optimizeQuality; fill-rule:evenodd; clip-rule:evenodd"
                             viewBox="0 0 36124.44 27093.32">
                            <g id="Слой_x0020_1">
                                <metadata id="CorelCorpID_0Corel-Layer"/>
                                <path class="fil0"
                                      d="M6620.75 11777.21c-702.86,1104.67 -1652.73,1512.85 -2532.58,1470.34 -3126.46,-150.97 -3046.54,-5165.4 236.36,-5165.4 4063.95,0 7228.33,10279.3 15178.87,10279.3 7581.95,0 9635.59,-8262.09 15706.1,-8120.71 143.63,3.38 267.55,-85.46 310.43,-222.56 42.88,-137.04 -8.17,-280.45 -127.96,-359.61 -1018.54,-673.25 -2394.36,-776.93 -3714.47,-423.24 -3713.42,994.99 -5266.76,4330.15 -12242.46,4330.15 -7906.76,0 -11241.69,-6921.51 -15271.16,-6921.51 -5632.28,0 -5325.07,7917.55 -437.72,7917.55 1376.34,0 2477.34,-591.54 3208.84,-1858.58 341.31,-591.17 40.86,-1280.84 -314.25,-925.73zm15316.21 7266.79c1261.2,151.35 2101.85,422.42 2101.85,731.73 0,474.67 -1979.58,859.46 -4421.46,859.46 -2441.88,0 -4421.46,-384.79 -4421.46,-859.46 0,-302.86 805.87,-569.06 2023.36,-722.13 716.06,191.23 1474.92,299.25 2284.15,299.25 880.91,0 1686.92,-111.92 2433.56,-308.85zm-397.38 -10725.19c-1387.29,-2480.78 -1976.65,-2480.86 -3363.79,-0.07 -129.24,230.96 -130.89,490.49 -4.87,723.18 126.09,232.69 344.61,372.94 608.63,390.79 725.2,48.95 1431.14,48.95 2156.27,0.07 264.02,-17.84 482.47,-158.1 608.56,-390.79 126.09,-232.61 124.36,-492.21 -4.8,-723.18zm-11145.21 755.79c6545.19,4851.68 12381.44,4851.68 18926.63,0 657.96,-487.71 566.58,-928.65 -449.63,-637.19 -8145,2336.48 -9882.37,2336.48 -18027.37,0 -1016.21,-291.46 -1107.59,149.48 -449.63,637.19z"/>
                            </g>
                        </svg>