<svg xmlns="http://www.w3.org/2000/svg"
                             fill="#7329B0" xmlns:xlink="http://www.w3.org/1999/xlink" xml:space="preserve"
                             width="150px"
                             height="150px" version="1.0"
                             style="shape-rendering:geometricPrecision; text-rendering:geometricPrecision; image-rendering:optimizeQuality; fill-rule:evenodd; clip-rule:evenodd"
                             viewBox="0 0 36124.44 27093.32">
                            <g id="Слой_x0020_1">
                                <metadata id="CorelCorpID_0Corel-Layer"/>
                                <path class="fil0"
                                      d="M19814.19 16287.43c66.67,419.27 -49.51,739.39 -235.56,913.79 -93.75,87.75 -204.79,142.78 -323.06,160.68 -119.5,18.14 -243.28,-1.11 -360.69,-61.04 -228.82,-116.43 -437.41,-401.5 -507.88,-877.64 -82.97,-559.23 -291.08,-1070.79 -593.8,-1511.02 -314.36,-457.14 -731.42,-839.64 -1217.61,-1120.79 -166.43,-96.21 -243.89,-249.16 -252.59,-406.16 -4.54,-79.66 10.17,-159.69 40.81,-232 30.27,-71.7 77.7,-137.63 138.24,-189.84 119.01,-103.2 282.87,-153.82 467.81,-100.87 773.1,220.85 1450.84,612.55 1958.97,1227.54 452.48,547.47 765.74,1267.99 885.36,2197.35zm-2174.43 -11345.46c-385.32,-385.32 -696.13,-845.28 -899.08,-1346.55 -431.16,-1065.03 -374.79,-2326.64 482.51,-3472.07 128.93,-172.56 388.75,-162.39 504.2,19.49 308.48,486.55 546.12,841.11 758.27,1524.62 933.4,-1617.15 1666.18,-1911.66 3538.01,-1410.89 66.67,17.77 133.22,59.93 187.51,114.1 54.17,54.3 96.33,120.85 114.1,187.52 500.9,1871.83 206.15,2604.48 -1410.89,3538.01 683.63,212.15 1038.07,449.79 1524.63,758.26 181.87,115.45 192.17,375.28 19.48,504.21 -1145.3,857.42 -2407.04,913.67 -3472.07,482.51 -501.26,-202.96 -961.22,-513.76 -1346.67,-899.21zm11131.1 5913.19c0,-1053.14 -425.52,-2005.3 -1114.05,-2693.83 -688.29,-688.29 -1640.69,-1113.93 -2693.83,-1113.81 -494.89,-0.12 -962.33,93.02 -1387.6,261.91 -366.94,145.6 -705.45,348.55 -1005.96,597.22 177.22,304.44 320.37,631.91 423.68,976.43 125.26,417.43 192.67,860.48 192.67,1318.72 0,404.08 -116.19,707.16 -274.66,870.41 -96.08,98.9 -210.92,156.02 -334.7,168.27 -130.04,12.75 -257.38,-23.77 -371.97,-112.63 -170.84,-132.85 -320.12,-407.5 -383.97,-837.68 -421.36,-2839.56 -4084.87,-4312.46 -6192.75,-2427.15 185.8,310.69 335.57,645.64 443.42,999.59 129.79,425.15 199.77,875.31 199.77,1339.31 0,403.83 -116.19,707.04 -274.78,870.29 -95.35,98.29 -210.18,156.02 -334.58,168.03 -128.81,12.87 -256.02,-23.9 -371.23,-113.25 -171.21,-131.87 -320.86,-406.89 -384.83,-836.82 -136.9,-923.97 -605.32,-1736.78 -1277.67,-2317.46 -666.72,-575.9 -1534.06,-923.84 -2477.64,-926.29 -1050.32,2.69 -1999.78,429.07 -2686.6,1117.73 -686.2,688.04 -1110,1638.72 -1110,2691.01 0,1040.76 418.9,1986.79 1097.63,2675.2 678.48,688.29 1616.78,1120.43 2655.46,1133.91l540 7.11 -283.85 458.36c-174.15,281.52 -308.72,583.99 -399.42,906.94 -90.44,322.08 -137.51,666.71 -137.51,1033.65 0,1040.77 418.91,1986.79 1097.51,2675.32 678.48,688.17 1616.67,1120.31 2655.47,1133.79l540.11 6.99 -283.96 458.49c-174.16,281.39 -308.48,583.99 -399.3,906.93 -90.57,321.96 -137.63,666.59 -137.51,1033.65 -0.12,1053.15 425.52,2005.3 1113.93,2693.83 688.41,688.29 1640.57,1113.93 2693.83,1113.93 1053.27,0 2005.55,-425.52 2693.95,-1113.93 688.41,-688.53 1113.81,-1640.68 1113.81,-2693.95 0.13,-691.47 -171.33,-1343.61 -492.31,-1906.88 -317.43,-556.66 -782.41,-1030.23 -1373.51,-1371.8 -110.67,-64.71 -189.23,-165.45 -227.1,-279.06 -38.73,-114.59 -36.16,-242.3 14.09,-360.32 50.37,-117.78 140.82,-208.11 249.04,-259.83 108.1,-52.08 234.94,-65.2 358.11,-29.9 520.14,148.66 997.51,374.9 1409.06,694.41 324.04,251.86 606.78,561.08 836.7,935.12 732.16,-233.23 1372.41,-691.47 1838.86,-1294.09 500.41,-646.49 801.04,-1460.4 801.04,-2342.7 0,-691.47 -171.45,-1343.48 -492.43,-1906.88 -317.31,-556.91 -782.29,-1030.23 -1373.39,-1372.04 -166.31,-96.21 -243.89,-249.28 -252.72,-406.16 -4.53,-79.66 10.18,-159.82 40.82,-232 30.39,-71.82 77.7,-137.51 138.24,-189.72 119.5,-102.83 283.36,-153.94 467.68,-100.99 520.75,148.66 998.36,375.27 1410.16,695.27 324.9,252.47 607.76,562.54 837.93,937.94 742.09,-231.51 1388.95,-689.27 1859.57,-1292.13 504.82,-647.23 807.29,-1463.1 807.29,-2348.46z"/>
                            </g>
                        </svg>