<svg xmlns="http://www.w3.org/2000/svg"
                             fill="#7329B0" xmlns:xlink="http://www.w3.org/1999/xlink" xml:space="preserve"
                             width="150px"
                             height="150px" version="1.0"
                             style="shape-rendering:geometricPrecision; text-rendering:geometricPrecision; image-rendering:optimizeQuality; fill-rule:evenodd; clip-rule:evenodd"
                             viewBox="0 0 36124.44 27093.32">
                            <g id="Слой_x0020_1">
                                <metadata id="CorelCorpID_0Corel-Layer"/>
                                <path class="fil0"
                                      d="M26976.08 8072.68l6648.94 0c1318.87,0 2394.47,1076.07 2394.47,2394.46l0 5307.33c0,1318.87 -1063.62,2383.8 -2382.49,2383.8 -3691.9,0 -9199.65,468 -12304.66,-1556.76 2088.45,-1131.62 3253.47,-2250.07 3253.47,-5401.42l0 -875.18c0,-1268.94 1121.33,-2252.23 2390.27,-2252.23zm-11330.71 9498.11c-3.35,0 344.8,733.19 701.82,1484.57 1872.83,3972.89 -9908.17,4490.57 -7827.98,-1.44l959.1 -2070.97c-4691.94,0 -13202.1,6496.29 -7441.26,8505.13 5867.5,2048.22 14769.27,2203.14 20652.23,78.06 6014.29,-2173.22 -1702.11,-7995.35 -7043.91,-7995.35zm-7633.9 -6329.28c-48.37,-288.53 -379.64,-623.16 -652.49,-728.63 -807.66,-312.12 -760.13,-1589.21 2.75,-1793.57 0,0 1389.03,-2749.08 2075.88,-5971.07 0,0 347.91,4892 7424.27,5893.96 1330,188.33 1072.95,1383.4 428.72,1798.13 -292.6,188.2 -474.7,459.13 -538.39,801.18 -387.54,2080.43 -1442.42,2379.74 -1442.42,4437.66 3581.03,-164.74 6022.55,-1793.93 6022.55,-1793.93 -2757.23,-2757.23 -1161.08,-7845.46 -3661.85,-11400.27 -1335.63,-1898.21 -3470.66,-3277.54 -5237.29,-1971.84 0,0 -1642.36,-1525.51 -4702.48,1141.08 -4351.82,3792.11 -5025.26,13051.73 474.7,13890.15 416.64,63.45 854.94,109.79 1311.68,132.29 0,-1832.6 -1086.6,-1933.52 -1505.63,-4435.14zm24777.29 -916.6l-4972.58 0c-352.82,0 -641.6,289.01 -641.6,641.84l0 0.12c0,352.7 289.01,641.71 641.6,641.71l4972.58 0c352.82,0 641.83,-288.77 641.83,-641.71l0 -0.12c0,-353.07 -288.77,-641.84 -641.83,-641.84zm-2085.22 2567.34l-2887.24 0c-352.94,0 -641.72,289.13 -641.72,641.72l0 0.12c0,352.7 289.13,641.83 641.72,641.83l2887.24 0c352.59,0 641.72,-288.77 641.72,-641.83l0 -0.12c0,-352.94 -288.78,-641.72 -641.72,-641.72z"/>
                            </g>
                        </svg>