<svg xmlns="http://www.w3.org/2000/svg"
                             fill="#7329B0" xmlns:xlink="http://www.w3.org/1999/xlink" xml:space="preserve"
                             width="150px"
                             height="150px" version="1.0"
                             style="shape-rendering:geometricPrecision; text-rendering:geometricPrecision; image-rendering:optimizeQuality; fill-rule:evenodd; clip-rule:evenodd"
                             viewBox="0 0 36124.44 27093.32">
                            <g id="Слой_x0020_1">
                                <metadata id="CorelCorpID_0Corel-Layer"/>
                                <path class="fil0"
                                      d="M33866.27 23611.63l0 -1299.57 -31581.4 0 0 1299.57 -26.7 0c0,1242.06 -1016.11,2258.17 -2258.17,2258.17l0 0 0 -2258.17 0 -5649.75c0,-1562.15 1279.83,-2876.5 2840.43,-2840.28l30443.58 710.07c1560.6,36.21 2840.43,1278.13 2840.43,2840.28l0 4939.68 0 2258.17 0 0c-1242.06,0 -2258.17,-1016.11 -2258.17,-2258.17zm-29350.36 -12153.86l-2074.69 1197.89c-225.8,130.37 -332.17,387.13 -264.71,639.07 67.6,251.79 288,420.93 548.74,420.93 10224.6,0 20359.3,-284.03 30583.9,-284.03 466.38,0 664.06,-608.53 151.96,-904.21l-1852.58 -1069.65 0 -8529.94c0,-937.29 -766.88,-1704.17 -1704.17,-1704.17l-23684.28 0c-937.29,0 -1704.17,766.88 -1704.17,1704.17l0 8529.94zm24547.87 -255.34c0,-2343.09 -1917.19,-4260.42 -4260.57,-4260.42l-1637.85 0c-2343.38,0 -4260.57,1917.33 -4260.57,4260.42l0 255.34 5898.42 0 4260.57 0 0 -255.34zm-11172.69 -2884.31l-3936.44 0c-1629.2,0 -2962.22,1333.17 -2962.22,2962.07l0 177.58c2006.55,0 4012.94,0 6019.49,0l0 -302.51c0,-1049.67 324.99,-2027.22 879.17,-2837.14z"/>
                            </g>
                        </svg>