<svg xmlns="http://www.w3.org/2000/svg"
                             fill="#001FFF" xmlns:xlink="http://www.w3.org/1999/xlink" xml:space="preserve"
                             width="150px"
                             height="150px" version="1.0"
                             style="shape-rendering:geometricPrecision; text-rendering:geometricPrecision; image-rendering:optimizeQuality; fill-rule:evenodd; clip-rule:evenodd"
                             viewBox="0 0 36124.44 27093.32" enable-background="new 0 0 100 100">
                            <g id="Слой_x0020_1">
                                <metadata id="CorelCorpID_0Corel-Layer"/>
                                <path class="fil0"
                                      d="M22281.72 14721.37c86.7,-260.1 -173.4,-455.17 -325.12,-455.17 -1402.56,80.15 -2869.96,-216.75 -4291.57,-216.75 -1989.49,0 -3431.75,419.94 -4790.1,1972.39 -361.39,309.74 -643.42,398.82 -1080.53,554.78 -394.8,140.87 -303.38,412.12 -233.33,533.45 439.68,761.55 1718.53,2898.79 2202.42,3736.87 112.89,195.54 336.8,455.97 673.69,359.22 2614.31,-750.79 6829.03,258.4 8928.25,-1001.12 325.12,-195.07 2579.28,-1625.6 3446.27,-2124.11 866.99,-498.52 1755.65,-1018.71 1907.37,-1148.76 151.72,-130.05 216.75,-108.37 108.37,-346.79 -507.3,-1116.08 -2559.21,-110.33 -3164.5,173.4 -1934.59,892.9 -4014.8,1300.56 -6133.92,932.01 -1257.13,-216.75 -2015.74,-563.54 -2275.84,-953.68 -854.93,-1321.26 4478.81,-366.55 5028.54,-2015.74z"/>
                                <path class="fil0"
                                      d="M13017.21 21643.17l-2584.94 -4295.62c-119.61,-198.77 -353.2,-286.5 -574.09,-215.61l-2270.45 728.64c-141.88,45.54 -246.02,140.77 -304.02,278.04 -58,137.26 -53.69,278.31 12.56,411.79l2145.81 4323.15c106.42,214.41 344.59,320.46 575.14,256.12l2709.58 -756.16c153.48,-42.83 267.29,-145.14 326.17,-293.21 58.88,-148.08 46.4,-300.6 -35.76,-437.14z"/>
                                <path class="fil0"
                                      d="M21364.39 3688.06c3123.73,0 5656.02,2532.29 5656.02,5656.02 0,1388.24 -500.45,2659.4 -1330.38,3643.66l-3370.78 0 0 -6896.31c0,-42.56 -28.37,-56.74 -85.12,-56.74l-553.28 0c-42.56,0 -99.31,28.37 -141.87,70.93 -851.2,666.77 -1688.21,993.07 -1957.76,1092.38 -127.68,42.56 -184.43,99.3 -184.43,184.42 0,156.06 326.29,212.8 666.78,283.74 340.48,56.74 666.77,496.53 666.77,1290.99l0 4030.59 -3691.59 0c-829.93,-984.26 -1330.38,-2255.42 -1330.38,-3643.66 0,-3123.73 2532.29,-5656.02 5656.02,-5656.02z"/>
                                <path class="fil0"
                                      d="M25901.38 15393.27c-108.37,-173.4 -520.19,-368.47 -888.66,-281.77 -822.36,193.5 -2418.91,1457.36 -3576.32,1864.02 1282.38,-47.49 2253.81,-236 3381.18,-716.72 171.36,-73.07 1352.64,-507.05 1083.8,-865.53z"/>
                            </g>
                        </svg>