<svg width="90" height="81" viewBox="0 0 90 81" fill="none" xmlns="http://www.w3.org/2000/svg">
<path fill-rule="evenodd" clip-rule="evenodd" d="M62.4447 45.8137C62.8047 44.7337 61.7247 43.9237 61.0947 43.9237C55.2708 44.2565 49.1777 43.0237 43.2748 43.0237C35.0138 43.0237 29.0251 44.7674 23.3848 51.2137C21.8842 52.4998 20.7131 52.8697 18.8981 53.5173C17.2587 54.1022 17.6383 55.2285 17.9292 55.7323C19.7549 58.8945 25.0651 67.769 27.0744 71.249C27.5431 72.0609 28.4728 73.1423 29.8717 72.7406C40.7272 69.6231 58.228 73.8135 66.9446 68.5836C68.2946 67.7736 77.6546 61.8336 81.2546 59.7636C84.8546 57.6936 88.5446 55.5336 89.1746 54.9936C89.8046 54.4536 90.0746 54.5437 89.6246 53.5537C87.5181 48.9193 78.9979 53.0955 76.4846 54.2737C68.4516 57.9813 59.8139 59.674 51.0146 58.1437C45.7946 57.2436 42.6447 55.8037 41.5646 54.1837C38.0147 48.6974 60.1621 52.6617 62.4447 45.8137Z" fill="#7329B0"/>
<path fill-rule="evenodd" clip-rule="evenodd" d="M23.9756 74.5552L13.2421 56.7184C12.7454 55.8931 11.7755 55.5288 10.8583 55.8232L1.43067 58.8487C0.841543 59.0378 0.409121 59.4332 0.168287 60.0032C-0.0725474 60.5732 -0.0546507 61.1588 0.22044 61.7131L9.13052 79.6642C9.57241 80.5545 10.5614 80.9948 11.5187 80.7277L22.7697 77.5878C23.407 77.41 23.8796 76.9852 24.1241 76.3703C24.3685 75.7555 24.3167 75.1222 23.9756 74.5552Z" fill="#7329B0"/>
<path fill-rule="evenodd" clip-rule="evenodd" d="M58.6357 0C71.6064 0 82.1213 10.5149 82.1213 23.4856C82.1213 29.25 80.0433 34.5282 76.5971 38.6152H62.6006V9.97955C62.6006 9.80282 62.4828 9.74394 62.2471 9.74394H59.9498C59.773 9.74394 59.5374 9.86174 59.3607 10.0385C55.8262 12.8071 52.3507 14.162 51.2314 14.5744C50.7013 14.7511 50.4656 14.9867 50.4656 15.3401C50.4656 15.9881 51.8205 16.2238 53.2343 16.5183C54.6481 16.7539 56.0029 18.5801 56.0029 21.8789V38.6152H40.6743C37.2282 34.5282 35.1501 29.25 35.1501 23.4856C35.1501 10.5149 45.665 0 58.6357 0Z" fill="#7329B0"/>
<path fill-rule="evenodd" clip-rule="evenodd" d="M77.4747 48.6038C77.0247 47.8838 75.3147 47.0738 73.7847 47.4338C70.37 48.2373 63.7406 53.4852 58.9347 55.1738C64.2595 54.9766 68.2932 54.1939 72.9744 52.1978C73.686 51.8944 78.591 50.0923 77.4747 48.6038Z" fill="#7329B0"/>
</svg>
