<svg width="150" height="103" viewBox="0 0 150 103" fill="none" xmlns="http://www.w3.org/2000/svg">
<path fill-rule="evenodd" clip-rule="evenodd" d="M140.623 92.9619V87.5656H9.4875V92.9619H9.37663C9.37663 98.1193 5.15742 102.338 0 102.338V92.9619V69.5023C0 63.0158 5.31426 57.5582 11.7944 57.7086L138.206 60.657C144.686 60.8074 150 65.9642 150 72.4508V92.9619V102.338C144.843 102.338 140.623 98.1193 140.623 92.9619ZM18.7515 42.4952L10.1367 47.4692C9.19912 48.0106 8.75744 49.0767 9.03755 50.1229C9.31825 51.1684 10.2334 51.8707 11.3161 51.8707C53.7718 51.8707 95.8543 50.6913 138.31 50.6913C140.247 50.6913 141.067 48.1645 138.941 46.9368L131.249 42.4952V7.07625C131.249 3.18433 128.064 0 124.172 0H25.8277C21.9358 0 18.7515 3.18433 18.7515 7.07625V42.4952ZM120.682 41.435C120.682 31.7057 112.721 23.7444 102.991 23.7444H96.1898C86.4594 23.7444 78.4986 31.7057 78.4986 41.435V42.4952H102.991H120.682V41.435ZM74.2894 29.4584H57.9441C51.1791 29.4584 45.644 34.9942 45.644 41.7579V42.4952C53.9758 42.4952 62.307 42.4952 70.6388 42.4952V41.2391C70.6388 36.8806 71.9883 32.8215 74.2894 29.4584Z" fill="#7329B0"/>
</svg>
