<svg width="150" height="113" viewBox="0 0 150 113" fill="none" xmlns="http://www.w3.org/2000/svg">
<path fill-rule="evenodd" clip-rule="evenodd" d="M111.577 33.5202H139.185C144.662 33.5202 149.128 37.9884 149.128 43.4627V65.5004C149.128 70.9768 144.712 75.3987 139.235 75.3987C123.905 75.3987 101.035 77.342 88.1424 68.9346C96.8143 64.2357 101.652 59.5916 101.652 46.5062V42.8722C101.652 37.6031 106.308 33.5202 111.577 33.5202ZM64.5283 72.9593C64.5144 72.9593 65.96 76.0038 67.4425 79.1237C75.2191 95.6204 26.3007 97.77 34.9383 79.1177L38.9208 70.5184C19.4383 70.5184 -15.8985 97.4931 8.02231 105.834C32.386 114.339 69.3489 114.983 93.7768 106.159C118.75 97.1346 86.7091 72.9593 64.5283 72.9593ZM32.83 46.6782C32.6291 45.4801 31.2536 44.0906 30.1206 43.6527C26.767 42.3566 26.9643 37.0538 30.1321 36.2052C30.1321 36.2052 35.8997 24.7902 38.7518 11.4114C38.7518 11.4114 40.1964 31.7246 69.5797 35.885C75.1022 36.667 74.0349 41.6293 71.3598 43.3514C70.1449 44.1329 69.3887 45.2579 69.1243 46.6782C67.5151 55.3168 63.1349 56.5596 63.1349 65.1047C78.0044 64.4207 88.1424 57.6558 88.1424 57.6558C76.6935 46.2069 83.3212 25.079 72.9373 10.3183C67.3913 2.4363 58.526 -3.29111 51.1904 2.13057C51.1904 2.13057 44.3708 -4.20383 31.6642 6.86869C13.5941 22.6147 10.7978 61.0636 33.6353 64.5449C35.3653 64.8084 37.1853 65.0008 39.0818 65.0943C39.0818 57.4847 34.5699 57.0657 32.83 46.6782ZM135.713 42.8722H115.065C113.6 42.8722 112.401 44.0722 112.401 45.5373V45.5378C112.401 47.0023 113.601 48.2024 115.065 48.2024H135.713C137.178 48.2024 138.378 47.0033 138.378 45.5378V45.5373C138.378 44.0712 137.179 42.8722 135.713 42.8722ZM127.055 53.5326H115.066C113.6 53.5326 112.401 54.7331 112.401 56.1972V56.1977C112.401 57.6622 113.602 58.8628 115.066 58.8628H127.055C128.519 58.8628 129.719 57.6637 129.719 56.1977V56.1972C129.719 54.7317 128.52 53.5326 127.055 53.5326Z" fill="#7329B0"/>
</svg>
