<svg width="148" height="59" viewBox="0 0 148 59" fill="none" xmlns="http://www.w3.org/2000/svg">
<path fill-rule="evenodd" clip-rule="evenodd" d="M27.4914 22.0863C24.5729 26.6732 20.6287 28.3681 16.9753 28.1916C3.99329 27.5647 4.32515 6.74321 17.9568 6.74321C34.8316 6.74321 47.9711 49.4261 80.9842 49.4261C112.467 49.4261 120.994 15.1193 146.201 15.7064C146.797 15.7204 147.312 15.3515 147.49 14.7822C147.668 14.2132 147.456 13.6177 146.959 13.289C142.729 10.4935 137.016 10.0629 131.535 11.5316C116.116 15.6631 109.666 29.5117 80.7003 29.5117C47.869 29.5117 34.0213 0.771434 17.2897 0.771434C-6.09728 0.771434 -4.82165 33.6476 15.4722 33.6476C21.1871 33.6476 25.7588 31.1913 28.7963 25.9302C30.2135 23.4755 28.9659 20.6117 27.4914 22.0863ZM91.0891 52.2602C96.326 52.8887 99.8166 54.0143 99.8166 55.2986C99.8166 57.2696 91.5968 58.8674 81.4574 58.8674C71.3179 58.8674 63.0981 57.2696 63.0981 55.2986C63.0981 54.041 66.4443 52.9357 71.4997 52.3001C74.473 53.0941 77.624 53.5427 80.9842 53.5427C84.642 53.5427 87.9888 53.078 91.0891 52.2602ZM89.4391 7.72589C83.6786 -2.57508 81.2314 -2.57541 75.4715 7.7256C74.9349 8.68462 74.928 9.76227 75.4513 10.7285C75.9749 11.6947 76.8823 12.277 77.9785 12.3512C80.9898 12.5544 83.9211 12.5544 86.9321 12.3514C88.0283 12.2774 88.9354 11.695 89.459 10.7288C89.9826 9.7629 89.9754 8.68495 89.4391 7.72589ZM43.1607 10.8642C70.3383 31.0099 94.5723 31.0099 121.75 10.8642C124.482 8.83904 124.103 7.00813 119.883 8.21836C86.0623 17.9202 78.8482 17.9202 45.0277 8.21836C40.808 7.00813 40.4286 8.83904 43.1607 10.8642Z" fill="#7329B0"/>
</svg>
