<svg width="89" height="113" viewBox="0 0 89 113" fill="none" xmlns="http://www.w3.org/2000/svg">
<path fill-rule="evenodd" clip-rule="evenodd" d="M51.7404 67.6307C52.0172 69.3717 51.5348 70.7009 50.7622 71.4251C50.373 71.7894 49.9119 72.0179 49.4208 72.0923C48.9246 72.1676 48.4106 72.0877 47.9231 71.8388C46.973 71.3554 46.1068 70.1717 45.8142 68.1946C45.4697 65.8725 44.6056 63.7483 43.3486 61.9203C42.0432 60.0222 40.3115 58.4339 38.2927 57.2665C37.6016 56.867 37.28 56.2319 37.2438 55.58C37.225 55.2492 37.2861 54.9169 37.4133 54.6166C37.539 54.3189 37.7359 54.0452 37.9873 53.8284C38.4815 53.3998 39.1619 53.1897 39.9298 53.4095C43.14 54.3266 45.9541 55.953 48.0641 58.5066C49.9429 60.7799 51.2437 63.7717 51.7404 67.6307ZM42.7114 20.5208C41.1115 18.9209 39.8209 17.011 38.9782 14.9295C37.1879 10.5072 37.4219 5.26859 40.9817 0.512406C41.5171 -0.204117 42.5959 -0.161888 43.0753 0.593335C44.3562 2.61364 45.343 4.08589 46.2239 6.92403C50.0997 0.209121 53.1424 -1.01378 60.9148 1.06558C61.1916 1.13936 61.468 1.31443 61.6934 1.53936C61.9183 1.76483 62.0934 2.04116 62.1672 2.318C64.2471 10.0904 63.0232 13.1326 56.3087 17.0089C59.1474 17.8898 60.6191 18.8766 62.6395 20.1575C63.3947 20.6368 63.4374 21.7157 62.7204 22.2511C57.9647 25.8114 52.7256 26.0449 48.3032 24.2546C46.2218 23.4119 44.312 22.1213 42.7114 20.5208ZM88.9313 45.0742C88.9313 40.7013 87.1644 36.7476 84.3054 33.8886C81.4474 31.0306 77.4927 29.2632 73.1197 29.2637C71.0648 29.2632 69.1239 29.65 67.358 30.3513C65.8343 30.9558 64.4287 31.7986 63.1809 32.8311C63.9168 34.0952 64.5112 35.455 64.9402 36.8856C65.4603 38.6189 65.7402 40.4585 65.7402 42.3613C65.7402 44.0392 65.2578 45.2976 64.5997 45.9755C64.2008 46.3862 63.7239 46.6234 63.21 46.6742C62.67 46.7272 62.1412 46.5755 61.6654 46.2065C60.956 45.6549 60.3362 44.5145 60.0711 42.7282C58.3214 30.9375 43.1094 24.8215 34.3568 32.6499C35.1283 33.94 35.7502 35.3308 36.198 36.8006C36.737 38.5659 37.0275 40.4351 37.0275 42.3618C37.0275 44.0386 36.5451 45.2976 35.8866 45.9755C35.4907 46.3836 35.0138 46.6233 34.4973 46.6732C33.9624 46.7267 33.4342 46.574 32.9558 46.203C32.2449 45.6554 31.6235 44.5134 31.3579 42.7282C30.7894 38.8916 28.8444 35.5166 26.0526 33.1054C23.2842 30.7141 19.6827 29.2693 15.7647 29.2592C11.4034 29.2703 7.46096 31.0408 4.60907 33.9003C1.75975 36.7573 0 40.7048 0 45.0742C0 49.3958 1.7394 53.324 4.5577 56.1825C7.37496 59.0405 11.2711 60.8349 15.584 60.8909L17.8263 60.9204L16.6476 62.8236C15.9245 63.9926 15.3657 65.2485 14.9891 66.5895C14.6136 67.9269 14.4181 69.3579 14.4181 70.8816C14.4181 75.2032 16.1576 79.1314 18.9753 81.9903C21.7926 84.8478 25.6882 86.6422 30.0017 86.6982L32.2444 86.7272L31.0653 88.631C30.3421 89.7994 29.7844 91.0559 29.4073 92.3969C29.0312 93.7337 28.8358 95.1648 28.8363 96.6889C28.8358 101.062 30.6032 105.016 33.4617 107.875C36.3202 110.733 40.2738 112.5 44.6473 112.5C49.0208 112.5 52.975 110.733 55.8334 107.875C58.6919 105.016 60.4583 101.062 60.4583 96.6884C60.4588 93.8172 59.7469 91.1093 58.4141 88.7704C57.096 86.459 55.1653 84.4926 52.7108 83.0743C52.2513 82.8056 51.9251 82.3873 51.7678 81.9156C51.607 81.4398 51.6177 80.9095 51.8264 80.4194C52.0355 79.9303 52.4111 79.5553 52.8604 79.3405C53.3093 79.1243 53.836 79.0698 54.3474 79.2163C56.5072 79.8336 58.4894 80.7731 60.1983 82.0998C61.5438 83.1456 62.7178 84.4295 63.6725 85.9827C66.7127 85.0142 69.3712 83.1115 71.3081 80.6092C73.3859 77.9248 74.6342 74.5452 74.6342 70.8816C74.6342 68.0104 73.9223 65.303 72.5895 62.9636C71.2719 60.6512 69.3412 58.6858 66.8868 57.2665C66.1962 56.867 65.874 56.2314 65.8374 55.58C65.8186 55.2492 65.8796 54.9163 66.0069 54.6166C66.1331 54.3184 66.3295 54.0457 66.5809 53.8289C67.0771 53.4019 67.7575 53.1897 68.5228 53.4095C70.6852 54.0268 72.6683 54.9678 74.3783 56.2965C75.7274 57.3448 76.9019 58.6323 77.8576 60.1911C80.939 59.2298 83.625 57.3291 85.5791 54.8258C87.6753 52.1383 88.9313 48.7505 88.9313 45.0742Z" fill="#7329B0"/>
</svg>
