<svg width="62" height="113" viewBox="0 0 62 113" fill="none" xmlns="http://www.w3.org/2000/svg">
<path fill-rule="evenodd" clip-rule="evenodd" d="M11.5134 104.072V106.881C11.5134 109.984 14.0296 112.5 17.1332 112.5C20.2353 112.5 22.7515 109.984 22.7515 106.881V104.072H11.5134Z" fill="#7329B0"/>
<path fill-rule="evenodd" clip-rule="evenodd" d="M44.1339 23.1721L45.7337 10.2577C45.9077 8.85286 47.0043 7.788 48.4137 7.65529C53.0151 7.22179 52.8684 0 47.9722 0H13.4319C8.5357 0 8.38905 7.22179 12.9914 7.65529C14.4008 7.788 15.4974 8.85335 15.6715 10.2582L17.2702 23.1721H11.5135C5.15622 23.1721 0 28.3283 0 34.686V88.2693C0 94.6266 5.15622 99.7827 11.5135 99.7827H49.9289C56.2688 99.7619 61.4046 94.6141 61.4046 88.2693V34.686C61.4046 28.3278 56.2474 23.1721 49.8916 23.1721H44.1339ZM24.9463 23.1721L23.4425 11.0248C23.2208 9.23462 24.5993 7.67563 26.4029 7.67563H35.0027C36.8068 7.67563 38.1843 9.23512 37.9626 11.0253L36.4583 23.1721H24.9463ZM9.10241 38.5512L17.0037 84.4852C17.6649 88.325 21.4386 87.7424 21.0663 84.0313L16.5001 38.5512C15.912 32.691 8.2886 33.8176 9.10241 38.5512ZM52.3032 38.5512L44.4019 84.4852C43.7407 88.325 39.967 87.7424 40.3394 84.0313L44.9054 38.5512C45.4936 32.691 53.117 33.8176 52.3032 38.5512ZM34.4405 37.2671L32.6105 84.8391C32.4102 87.8686 28.9109 87.8736 28.7946 84.8391L26.9647 37.2671C26.824 33.6013 34.5811 33.6028 34.4405 37.2671Z" fill="#7329B0"/>
<path fill-rule="evenodd" clip-rule="evenodd" d="M38.6536 104.072V106.881C38.6536 109.984 41.1697 112.5 44.2733 112.5C47.3754 112.5 49.8916 109.984 49.8916 106.881V104.072H38.6536Z" fill="#7329B0"/>
</svg>
