<svg width="150" height="71" viewBox="0 0 150 71" fill="none" xmlns="http://www.w3.org/2000/svg">
<path fill-rule="evenodd" clip-rule="evenodd" d="M8.03327 38.949H44.5518V20.009C44.5518 15.5842 48.1604 11.9756 52.5851 11.9756H97.4141C101.839 11.9756 105.447 15.5842 105.447 20.009V38.949V70.499H91.5968V41.1505C91.5968 32.281 82.3826 27.2028 75.6354 23.3074C68.8883 27.2028 59.6741 32.281 59.6741 41.1505V70.499H44.5518H0V46.9823C0 42.5576 3.60857 38.949 8.03327 38.949ZM9.54592 24.687H35.0058V34.6425H9.54592V24.687ZM9.54592 20.3803H22.2758H35.0058V15.4066C35.0058 7.61082 29.1379 3.96172 22.2758 0C15.4138 3.96172 9.54592 7.61082 9.54592 15.4066V20.3803ZM119.66 38.949H141.967C146.391 38.949 150 42.5576 150 46.9823V70.499H110.213L111.641 46.5051C111.894 42.2555 115.403 38.949 119.66 38.949Z" fill="#7329B0"/>
</svg>
